<svg width="21" height="21" viewBox="0 0 21 21" fill="none" xmlns="http://www.w3.org/2000/svg">
<path d="M15.2307 6.76928C15.2307 7.70391 14.473 8.46159 13.5384 8.46159C12.6038 8.46159 11.8461 7.70391 11.8461 6.76928C11.8461 5.83464 12.6038 5.07697 13.5384 5.07697C14.473 5.07697 15.2307 5.83464 15.2307 6.76928Z" fill="white"/>
<path fill-rule="evenodd" clip-rule="evenodd" d="M10.2023 1.05774H10.1052C8.15197 1.05773 6.62124 1.05772 5.42691 1.21829C4.20444 1.38265 3.2398 1.72563 2.48266 2.48278C1.72551 3.23992 1.38253 4.20456 1.21817 5.42703C1.0576 6.62136 1.05761 8.15208 1.05762 10.1053V10.2024C1.05761 12.1557 1.0576 13.6864 1.21817 14.8808C1.38253 16.1032 1.72551 17.0679 2.48266 17.825C3.2398 18.5822 4.20444 18.9251 5.42691 19.0895C6.62124 19.2501 8.15197 19.2501 10.1052 19.25H10.2023C12.1556 19.2501 13.6863 19.2501 14.8806 19.0895C16.1031 18.9251 17.0677 18.5822 17.8249 17.825C18.582 17.0679 18.925 16.1032 19.0894 14.8808C19.2499 13.6864 19.2499 12.1557 19.2499 10.2024V10.1053C19.2499 8.15209 19.2499 6.62137 19.0894 5.42703C18.925 4.20456 18.582 3.23992 17.8249 2.48278C17.0677 1.72563 16.1031 1.38265 14.8806 1.21829C13.6863 1.05772 12.1556 1.05773 10.2023 1.05774ZM3.38014 3.38026C3.86215 2.89824 4.5143 2.62164 5.59603 2.47621C6.69601 2.32832 8.14143 2.32697 10.1538 2.32697C12.1661 2.32697 13.6115 2.32832 14.7115 2.47621C15.7932 2.62164 16.4454 2.89824 16.9274 3.38026C17.4094 3.86228 17.686 4.51443 17.8315 5.59615C17.9793 6.69613 17.9807 8.14155 17.9807 10.1539C17.9807 10.5349 17.9806 10.8955 17.9796 11.2373L17.7916 11.2113C15.3854 10.8781 13.1834 12.129 12.0622 14.0145C10.6157 10.355 6.79322 7.85918 2.52208 8.47247L2.33105 8.50002C2.34067 7.31075 2.37227 6.36833 2.47609 5.59615C2.62152 4.51443 2.89812 3.86228 3.38014 3.38026Z" fill="white"/>
</svg>
