<svg width="26" height="26" viewBox="0 0 26 26" fill="none" xmlns="http://www.w3.org/2000/svg">
<path d="M12.9998 23.8333C11.5193 23.8333 10.12 23.5487 8.80192 22.9796C7.48386 22.4105 6.333 21.6341 5.34934 20.6505C4.36567 19.6668 3.58928 18.5159 3.02017 17.1979C2.45106 15.8798 2.1665 14.4805 2.1665 13C2.1665 11.5013 2.46009 10.093 3.04725 8.77496C3.63442 7.4569 4.42886 6.31038 5.43059 5.33538C6.43231 4.36038 7.60123 3.58868 8.93734 3.02029C10.2734 2.4519 11.6998 2.16735 13.2165 2.16663C14.6609 2.16663 16.0241 2.41507 17.3061 2.91196C18.588 3.40885 19.7122 4.09496 20.6785 4.97029C21.6448 5.84563 22.4122 6.88382 22.9806 8.08488C23.549 9.28593 23.8332 10.5812 23.8332 11.9708C23.8332 14.0472 23.2012 15.6408 21.9373 16.7515C20.6734 17.8623 19.1387 18.4173 17.3332 18.4166H15.329C15.1665 18.4166 15.0538 18.4618 14.991 18.552C14.9282 18.6423 14.8964 18.7416 14.8957 18.85C14.8957 19.0666 15.0311 19.3783 15.3019 19.7849C15.5728 20.1915 15.7082 20.6562 15.7082 21.1791C15.7082 22.0819 15.4601 22.75 14.9639 23.1833C14.4678 23.6166 13.8131 23.8333 12.9998 23.8333ZM7.0415 14.0833C7.51095 14.0833 7.89914 13.9298 8.20609 13.6229C8.51303 13.3159 8.6665 12.9277 8.6665 12.4583C8.6665 11.9888 8.51303 11.6007 8.20609 11.2937C7.89914 10.9868 7.51095 10.8333 7.0415 10.8333C6.57206 10.8333 6.18387 10.9868 5.87692 11.2937C5.56998 11.6007 5.4165 11.9888 5.4165 12.4583C5.4165 12.9277 5.56998 13.3159 5.87692 13.6229C6.18387 13.9298 6.57206 14.0833 7.0415 14.0833ZM10.2915 9.74996C10.7609 9.74996 11.1491 9.59649 11.4561 9.28954C11.763 8.9826 11.9165 8.5944 11.9165 8.12496C11.9165 7.65551 11.763 7.26732 11.4561 6.96038C11.1491 6.65343 10.7609 6.49996 10.2915 6.49996C9.82206 6.49996 9.43386 6.65343 9.12692 6.96038C8.81998 7.26732 8.6665 7.65551 8.6665 8.12496C8.6665 8.5944 8.81998 8.9826 9.12692 9.28954C9.43386 9.59649 9.82206 9.74996 10.2915 9.74996ZM15.7082 9.74996C16.1776 9.74996 16.5658 9.59649 16.8728 9.28954C17.1797 8.9826 17.3332 8.5944 17.3332 8.12496C17.3332 7.65551 17.1797 7.26732 16.8728 6.96038C16.5658 6.65343 16.1776 6.49996 15.7082 6.49996C15.2387 6.49996 14.8505 6.65343 14.5436 6.96038C14.2366 7.26732 14.0832 7.65551 14.0832 8.12496C14.0832 8.5944 14.2366 8.9826 14.5436 9.28954C14.8505 9.59649 15.2387 9.74996 15.7082 9.74996ZM18.9582 14.0833C19.4276 14.0833 19.8158 13.9298 20.1228 13.6229C20.4297 13.3159 20.5832 12.9277 20.5832 12.4583C20.5832 11.9888 20.4297 11.6007 20.1228 11.2937C19.8158 10.9868 19.4276 10.8333 18.9582 10.8333C18.4887 10.8333 18.1005 10.9868 17.7936 11.2937C17.4866 11.6007 17.3332 11.9888 17.3332 12.4583C17.3332 12.9277 17.4866 13.3159 17.7936 13.6229C18.1005 13.9298 18.4887 14.0833 18.9582 14.0833Z" fill="white"/>
</svg>
